<svg xmlns="http://www.w3.org/2000/svg" fill="none" width="24" height="24" viewBox="0 0 24 24">
 <g>
    <g id="telefone-icon" transform="translate(7.488) rotate(19)">
    <g id="Outlined_Communication_call">
      <path fill="currentColor" d="M16.292,17.25a16.185,16.185,0,0,1-11.52-4.771A16.185,16.185,0,0,1,0,.958.959.959,0,0,1,.958,0H4.313a.959.959,0,0,1,.958.958A10.894,10.894,0,0,0,5.817,4.38a.966.966,0,0,1-.239.977L3.469,7.466a14.6,14.6,0,0,0,6.315,6.315l2.109-2.109a.987.987,0,0,1,.681-.278.776.776,0,0,1,.3.048,10.9,10.9,0,0,0,3.422.546.959.959,0,0,1,.958.958v3.345A.959.959,0,0,1,16.292,17.25Zm-3.45-3.814-1.15,1.14a14.839,14.839,0,0,0,3.641.718V13.867a12.31,12.31,0,0,1-2.492-.431ZM1.946,1.916a14.209,14.209,0,0,0,.728,3.632L3.823,4.4a11.866,11.866,0,0,1-.431-2.482Z"/>
    </g>
  </g>
 </g>
</svg>
