<?xml version="1.0" standalone="no"?>
<!DOCTYPE svg PUBLIC "-//W3C//DTD SVG 20010904//EN"
 "http://www.w3.org/TR/2001/REC-SVG-20010904/DTD/svg10.dtd">
<svg version="1.0" xmlns="http://www.w3.org/2000/svg"
 width="636.000000pt" height="636.000000pt" viewBox="0 0 636.000000 636.000000"
 preserveAspectRatio="xMidYMid meet">
<metadata>
Created by potrace 1.11, written by Peter Selinger 2001-2013
</metadata>
<g transform="translate(0.000000,636.000000) scale(0.100000,-0.100000)"
fill="#000000" stroke="none">
<path d="M2258 6353 c-1 -4 -16 -17 -33 -29 -225 -156 -349 -241 -366 -250
-11 -6 -31 -21 -45 -33 -13 -11 -26 -21 -29 -21 -2 0 -57 -37 -122 -82 -65
-46 -125 -87 -135 -93 -15 -9 -151 -102 -233 -159 -16 -12 -38 -29 -49 -38
-11 -10 -25 -18 -32 -18 -7 0 -17 -6 -21 -12 -4 -7 -16 -17 -25 -23 -20 -12
-119 -79 -450 -307 -283 -194 -262 -180 -318 -220 l-45 -33 -2 -625 c0 -344
-4 -1153 -7 -1798 l-6 -1172 222 -109 c392 -192 516 -251 524 -251 5 0 10 123
11 273 3 362 12 1106 19 1497 3 173 5 322 5 330 -1 8 -1 31 0 50 0 19 0 44 -1
55 -1 11 -1 25 -1 30 1 28 11 753 15 1043 2 183 6 335 8 337 2 3 62 -18 134
-46 71 -28 165 -64 209 -81 109 -40 220 -83 280 -106 28 -10 118 -45 200 -76
83 -31 159 -61 170 -65 11 -5 58 -23 105 -41 47 -18 94 -36 105 -41 11 -4 88
-34 170 -65 83 -30 177 -66 210 -79 33 -13 110 -42 170 -65 61 -23 119 -45
130 -50 51 -22 182 -72 195 -75 8 -2 62 -22 120 -45 158 -62 261 -101 305
-117 22 -7 49 -18 60 -23 11 -5 81 -32 155 -60 171 -64 165 -62 165 -58 1 2
13 -5 27 -14 25 -17 27 -16 99 35 41 28 76 54 79 57 3 4 32 25 65 48 50 34
236 168 326 234 13 10 49 36 79 58 30 22 63 45 72 52 9 7 26 20 38 28 19 13
110 79 175 126 43 31 270 195 428 309 92 66 209 151 260 188 50 38 131 96 179
130 49 34 88 64 88 67 0 3 -69 32 -153 64 -83 33 -208 81 -277 109 -69 27
-165 65 -215 84 -49 19 -99 38 -110 43 -33 14 -343 135 -445 174 -52 20 -104
41 -115 46 -11 5 -103 41 -205 80 -102 39 -194 75 -205 80 -11 5 -83 34 -160
64 -77 29 -216 84 -310 121 -93 36 -251 98 -350 136 -99 39 -190 75 -202 80
-13 5 -33 13 -45 18 -13 5 -95 37 -183 71 -88 34 -175 69 -194 77 -18 8 -39
16 -45 17 -6 1 -28 10 -50 19 -21 9 -41 17 -43 17 -3 0 -19 6 -36 14 -41 18
-285 112 -314 121 -11 3 -23 2 -25 -2z"/>
<path d="M6000 4013 c-14 -10 -29 -21 -35 -25 -31 -25 -419 -298 -443 -313
-10 -5 -19 -13 -22 -16 -3 -3 -41 -30 -85 -60 -44 -29 -86 -59 -92 -65 -7 -7
-29 -22 -50 -35 -21 -13 -40 -26 -43 -29 -5 -7 -135 -98 -212 -149 -21 -13
-38 -28 -38 -33 0 -4 -4 -8 -10 -8 -5 0 -68 -42 -140 -92 -71 -51 -185 -131
-251 -178 -67 -47 -128 -91 -135 -97 -7 -7 -15 -13 -18 -13 -3 0 -34 -20 -68
-45 -35 -25 -87 -62 -117 -83 -30 -20 -68 -47 -85 -58 -25 -17 -35 -19 -51
-11 -11 6 -22 12 -25 12 -3 1 -22 9 -44 18 -21 9 -40 17 -42 17 -2 0 -23 9
-47 19 -23 11 -82 36 -132 56 -49 20 -103 43 -120 50 -16 7 -55 23 -85 35 -30
12 -68 28 -85 35 -16 8 -55 23 -85 35 -30 12 -70 28 -87 36 -18 8 -48 20 -65
28 -18 8 -58 24 -88 36 -30 12 -70 28 -87 36 -18 8 -48 20 -65 28 -18 8 -85
35 -148 61 -63 26 -126 52 -140 58 -14 6 -27 11 -30 12 -3 1 -16 6 -30 12 -14
6 -54 23 -90 37 -36 15 -74 31 -85 36 -11 5 -49 21 -85 36 -36 14 -76 31 -90
37 -14 6 -27 11 -30 12 -3 1 -16 7 -30 12 -14 6 -65 27 -113 47 -48 20 -108
45 -132 56 -24 11 -47 20 -50 20 -3 0 -31 11 -61 25 -30 14 -60 25 -67 25 -10
0 -12 -100 -12 -450 l0 -450 165 -66 c91 -36 181 -73 200 -81 19 -8 44 -19 55
-23 87 -34 165 -65 190 -76 17 -7 161 -65 320 -129 160 -64 304 -123 322 -131
17 -8 34 -14 37 -14 3 0 25 -9 49 -19 23 -10 78 -33 122 -50 44 -18 89 -36
100 -41 54 -25 673 -273 692 -277 18 -4 124 58 198 115 6 4 78 52 160 107 83
55 152 103 153 108 2 4 10 7 18 7 8 0 14 5 14 10 0 6 5 10 10 10 6 0 28 12 49
28 21 15 47 33 57 40 11 6 72 48 138 92 65 44 123 80 127 80 5 0 9 5 9 10 0 6
6 10 14 10 8 0 16 4 18 8 4 10 96 72 108 72 4 0 10 4 12 8 4 11 185 132 197
132 5 0 11 4 13 8 2 7 223 159 285 197 9 6 67 45 130 88 63 42 118 77 122 77
4 0 18 11 31 25 20 21 24 37 26 98 4 120 14 375 19 492 3 61 7 172 10 248 4
75 5 137 3 137 -2 0 -15 -8 -28 -17z"/>
<path d="M5925 2145 c-49 -36 -99 -70 -109 -77 -10 -7 -41 -29 -68 -48 -27
-19 -71 -51 -99 -70 -28 -19 -57 -41 -64 -47 -8 -7 -17 -13 -20 -13 -4 0 -20
-10 -35 -22 -15 -13 -36 -29 -46 -36 -10 -7 -57 -39 -104 -72 -47 -33 -92 -64
-100 -70 -8 -6 -91 -64 -185 -130 -93 -66 -177 -125 -185 -130 -25 -18 -214
-150 -235 -166 -32 -23 -325 -229 -378 -266 -27 -18 -54 -37 -60 -43 -7 -5
-34 -24 -59 -42 l-47 -32 -58 23 c-80 32 -280 115 -323 133 -70 30 -97 42
-185 77 -49 20 -99 41 -110 46 -20 9 -47 20 -260 108 -66 27 -169 70 -230 95
-141 59 -558 232 -630 262 -16 7 -70 29 -120 49 -49 20 -101 42 -115 48 -33
14 -49 21 -149 63 -47 19 -87 32 -90 29 -3 -3 -6 -204 -6 -446 -1 -450 1 -468
36 -468 6 0 29 -8 52 -18 23 -11 74 -31 112 -47 39 -15 84 -33 100 -40 90 -39
160 -65 172 -65 7 0 13 -4 13 -10 0 -5 3 -9 8 -8 4 0 16 -3 27 -7 11 -5 115
-46 230 -92 116 -45 218 -87 227 -93 10 -5 22 -10 28 -10 6 0 32 -10 58 -21
85 -38 105 -46 337 -139 127 -50 244 -97 260 -105 17 -7 66 -27 110 -45 44
-18 91 -37 105 -43 14 -6 27 -11 30 -11 3 -1 37 -14 75 -29 39 -16 79 -33 90
-37 11 -4 36 -15 55 -23 33 -14 143 -57 147 -57 1 0 8 6 15 13 7 7 38 28 68
47 30 19 57 37 60 40 3 3 127 86 275 185 149 99 275 183 280 188 6 4 46 31 90
60 44 28 82 55 83 60 2 4 8 7 13 7 6 0 15 5 22 10 28 24 490 330 498 330 5 0
9 4 9 8 0 5 12 15 28 23 15 8 29 17 32 20 12 13 99 69 108 69 6 0 12 4 14 8 2
5 59 46 128 92 69 45 129 86 134 91 9 8 11 25 20 304 3 83 8 204 11 270 2 66
7 180 10 253 3 72 2 132 -2 132 -4 0 -48 -30 -98 -65z"/>
</g>
</svg>
