<svg xmlns="http://www.w3.org/2000/svg" width="238" height="51.978" viewBox="0 0 238 51.978"><path d="M189.653,1316.936a25.773,25.773,0,0,1-13.782-13.781,26.329,26.329,0,0,1,0-20.291,25.022,25.022,0,0,1,5.539-8.226,25.808,25.808,0,0,1,28.517-5.605,26.631,26.631,0,0,1,13.846,13.847,25.808,25.808,0,0,1-5.6,28.516,24.92,24.92,0,0,1-8.226,5.539,26.232,26.232,0,0,1-20.29,0Zm-4.18-29.9a15.586,15.586,0,1,0,14.389-9.6A15.6,15.6,0,0,0,185.473,1287.037Zm-52.415,31.687v-7.519l22.879-34.088H133.65l7.256-9.827h29.208v7.584L146.905,1308.9H171.04l-7.255,9.827Zm-17.186,0-22.748-32.115v32.115H82.769V1267.29h9.164l23.017,32.443V1267.29H125.3v51.434Zm-75,0v-9.855h33.3v9.855Zm-40.873,0V1267.29H33.831v9.827H10.354v11.867H33.831v9.827H10.354v19.912Zm40.873-20.79v-9.855h33.3v9.855Zm185.066-24.694a6.03,6.03,0,1,1,6.017,6.017A6.028,6.028,0,0,1,225.939,1273.24Zm1.556,0a4.475,4.475,0,1,0,4.461-4.539A4.506,4.506,0,0,0,227.495,1273.24Zm-186.622,3.9v-9.854h33.3v9.854Zm192.277-.766-1.686-2.361h-.337v2.361h-1.4v-6.25h1.53c2.075,0,2.957.571,2.957,1.893a1.87,1.87,0,0,1-1.246,1.79l1.894,2.568Zm-2.023-3.5c1.012,0,1.634-.077,1.634-.8,0-.648-.338-.8-1.634-.8Z" transform="translate(0 -1267)" fill="#0336FF"/></svg>