<svg xmlns="http://www.w3.org/2000/svg" width="238" height="79.956" viewBox="0 0 238 79.956"><g transform="translate(-835 -821.713)"><path d="M295.317,1447.584a25.593,25.593,0,0,1-13.685-13.684,26.144,26.144,0,0,1,0-20.148,24.842,24.842,0,0,1,5.5-8.168,25.628,25.628,0,0,1,28.316-5.565,26.44,26.44,0,0,1,13.749,13.749,25.626,25.626,0,0,1-5.565,28.316,24.732,24.732,0,0,1-8.168,5.5,26.049,26.049,0,0,1-20.147,0Zm-4.15-29.689a15.476,15.476,0,1,0,14.288-9.529A15.487,15.487,0,0,0,291.167,1417.9Zm-52.046,31.465v-7.465l22.718-33.849h-22.13l7.2-9.758h29v7.531L252.87,1439.6h23.965l-7.2,9.759Zm-17.066,0-22.587-31.889v31.889H189.187v-51.072h9.1L221.14,1430.5v-32.215h10.282v51.072Zm-74.471,0v-9.786h33.064v9.786Zm-40.585,0v-51.072h33.593v9.758H117.281v11.785h23.312v9.758H117.281v19.772Zm40.585-20.643v-9.786h33.064v9.786Zm185.44-24.52a5.988,5.988,0,1,1,5.975,5.975A5.985,5.985,0,0,1,333.024,1404.2Zm1.545,0a4.443,4.443,0,1,0,4.43-4.507A4.474,4.474,0,0,0,334.57,1404.2Zm-186.985,3.877v-9.786h33.064v9.786Zm192.6-.76-1.674-2.345h-.335v2.345h-1.391v-6.207H338.3c2.06,0,2.936.567,2.936,1.88a1.857,1.857,0,0,1-1.236,1.777l1.88,2.55Zm-2.009-3.478c1,0,1.623-.077,1.623-.8,0-.643-.335-.8-1.623-.8Z" transform="translate(728 -576.287)" fill="#0336FF"/><path d="M7.239-3.484l1.31-1.63A5.821,5.821,0,0,0,4.842-6.44c-1.854,0-3.66,1.007-3.66,3.132,0,2.141,1.63,2.781,3.084,3.324C5.4.432,6.424.8,6.424,1.758c0,.991-.879,1.422-1.774,1.422A3.761,3.761,0,0,1,1.87,1.774L.351,3.26A5.771,5.771,0,0,0,4.634,5.13c1.95,0,4.235-1.039,4.235-3.468,0-2.349-1.9-3.084-3.484-3.628-.863-.3-1.918-.543-1.918-1.406,0-.735.687-1.119,1.454-1.119A3.782,3.782,0,0,1,7.239-3.484ZM18.633,1.295A6.088,6.088,0,0,0,18.745.224a3.862,3.862,0,0,0-4.059-3.883A4.31,4.31,0,0,0,10.419.831a4.073,4.073,0,0,0,4.251,4.3,4.192,4.192,0,0,0,3.835-2.061L17.019,2.062A2.376,2.376,0,0,1,14.83,3.308,2.12,2.12,0,0,1,12.72,1.295Zm-5.8-1.55a1.9,1.9,0,0,1,1.918-1.63,1.617,1.617,0,0,1,1.678,1.63Zm9.924-3.212H20.791V4.938H23.06V-.751a1.861,1.861,0,0,1,1.582-.927,1.686,1.686,0,0,1,.8.192l.543-1.982A3.144,3.144,0,0,0,24.9-3.659a2.352,2.352,0,0,0-1.966,1.31Zm6.376,0H27.167V4.938h2.269V-.751a1.861,1.861,0,0,1,1.582-.927,1.686,1.686,0,0,1,.8.192l.543-1.982a3.144,3.144,0,0,0-1.087-.192,2.352,2.352,0,0,0-1.966,1.31ZM40.606,4.938V-.112c0-2.189-1.135-3.548-3.468-3.548a8.4,8.4,0,0,0-3.612.863l.607,1.63A5.492,5.492,0,0,1,36.675-1.9c1.23,0,1.662.639,1.662,1.694V-.08a7.512,7.512,0,0,0-1.518-.176c-1.742,0-3.66.655-3.66,2.717A2.761,2.761,0,0,0,36.18,5.13a2.817,2.817,0,0,0,2.285-.911l.176.719ZM38.337,2.829a2.472,2.472,0,0,1-1.678.719,1.153,1.153,0,0,1-1.278-1.119c0-.991.975-1.294,1.806-1.294a5.256,5.256,0,0,1,1.151.144ZM45.4-7.047H43.131V4.938H45.4Zm4.874,0H48.005V4.938h2.269V-.639A2.193,2.193,0,0,1,52.1-1.71a1.157,1.157,0,0,1,1.119.591A4.346,4.346,0,0,1,53.471.687V4.938H55.74V.575a4.935,4.935,0,0,0-.751-3.132,2.832,2.832,0,0,0-2.237-1.1,3.216,3.216,0,0,0-2.477,1.183ZM65.919,1.295A6.088,6.088,0,0,0,66.031.224a3.862,3.862,0,0,0-4.059-3.883A4.31,4.31,0,0,0,57.705.831a4.073,4.073,0,0,0,4.251,4.3,4.192,4.192,0,0,0,3.835-2.061L64.305,2.062a2.376,2.376,0,0,1-2.189,1.246,2.12,2.12,0,0,1-2.109-2.014Zm-5.8-1.55a1.9,1.9,0,0,1,1.918-1.63,1.617,1.617,0,0,1,1.678,1.63Zm9.924-3.212H68.077V4.938h2.269V-.751a1.86,1.86,0,0,1,1.582-.927,1.686,1.686,0,0,1,.8.192l.543-1.982a3.144,3.144,0,0,0-1.087-.192,2.352,2.352,0,0,0-1.966,1.31Zm6.68,8.406V-3.468H74.453V4.938Zm0-9.572V-6.568H74.453v1.934ZM86.39,4.938V-.112c0-2.189-1.135-3.548-3.468-3.548a8.4,8.4,0,0,0-3.612.863l.607,1.63A5.492,5.492,0,0,1,82.459-1.9c1.23,0,1.662.639,1.662,1.694V-.08A7.512,7.512,0,0,0,82.6-.256c-1.742,0-3.66.655-3.66,2.717a2.761,2.761,0,0,0,3.02,2.669,2.817,2.817,0,0,0,2.285-.911l.176.719ZM84.121,2.829a2.472,2.472,0,0,1-1.678.719,1.153,1.153,0,0,1-1.278-1.119c0-.991.975-1.294,1.806-1.294a5.256,5.256,0,0,1,1.151.144ZM98.615-6.76a5.014,5.014,0,0,0-2.093-.479,2.825,2.825,0,0,0-2.365.863,3.452,3.452,0,0,0-.607,2.237v.671h-.911v1.886h.911v6.52h2.269v-6.52h2.093V-3.468H95.819v-.543a1.77,1.77,0,0,1,.224-1.023.826.826,0,0,1,.7-.256,2.371,2.371,0,0,1,1.167.272Zm4.65,3.1A4.288,4.288,0,0,0,98.855.735a4.4,4.4,0,0,0,8.805,0A4.284,4.284,0,0,0,103.266-3.659ZM105.343.735a2.206,2.206,0,0,1-2.077,2.445A2.218,2.218,0,0,1,101.172.735a2.218,2.218,0,0,1,2.093-2.445A2.206,2.206,0,0,1,105.343.735Zm6.312-4.2H109.69V4.938h2.269V-.751a1.861,1.861,0,0,1,1.582-.927,1.686,1.686,0,0,1,.8.192l.543-1.982a3.144,3.144,0,0,0-1.087-.192,2.352,2.352,0,0,0-1.966,1.31Zm9.636,1.886V-3.468H119.15V-5.321h-1.918l-.352,1.854h-1.007v1.886h1.007v3.5a4.927,4.927,0,0,0,.16,1.406,2.42,2.42,0,0,0,2.493,1.806,4.251,4.251,0,0,0,2-.5l-.7-1.678a1.932,1.932,0,0,1-.911.24c-.479,0-.671-.3-.735-.8a5.3,5.3,0,0,1-.032-.719v-3.26Zm9.572,2.876a6.088,6.088,0,0,0,.112-1.071,3.862,3.862,0,0,0-4.059-3.883A4.31,4.31,0,0,0,122.65.831a4.073,4.073,0,0,0,4.251,4.3,4.192,4.192,0,0,0,3.835-2.061L129.25,2.062a2.376,2.376,0,0,1-2.189,1.246,2.12,2.12,0,0,1-2.109-2.014Zm-5.8-1.55a1.9,1.9,0,0,1,1.918-1.63,1.617,1.617,0,0,1,1.678,1.63Zm10.1,2.813H132.75l-.895,4.395h2.157Zm6.648-6.025v12.4h2.269V4.123a3.292,3.292,0,0,0,2.461,1.007A4.127,4.127,0,0,0,150.472.767a4.145,4.145,0,0,0-3.915-4.427,3.136,3.136,0,0,0-2.6,1.23l-.176-1.039ZM144.08-.591A2.182,2.182,0,0,1,148.155.7,2.246,2.246,0,0,1,146.03,3.18a2.406,2.406,0,0,1-1.95-.911Zm15.485,5.529V-.112c0-2.189-1.135-3.548-3.468-3.548a8.4,8.4,0,0,0-3.612.863l.607,1.63a5.492,5.492,0,0,1,2.541-.735c1.23,0,1.662.639,1.662,1.694V-.08a7.512,7.512,0,0,0-1.518-.176c-1.742,0-3.66.655-3.66,2.717a2.761,2.761,0,0,0,3.02,2.669,2.817,2.817,0,0,0,2.285-.911l.176.719ZM157.3,2.829a2.472,2.472,0,0,1-1.678.719,1.153,1.153,0,0,1-1.278-1.119c0-.991.975-1.294,1.806-1.294a5.256,5.256,0,0,1,1.151.144Zm6.76-6.3H162.09V4.938h2.269V-.751a1.861,1.861,0,0,1,1.582-.927,1.686,1.686,0,0,1,.8.192l.543-1.982a3.144,3.144,0,0,0-1.087-.192,2.352,2.352,0,0,0-1.966,1.31ZM175.53,4.938V-.112c0-2.189-1.135-3.548-3.468-3.548a8.4,8.4,0,0,0-3.612.863l.607,1.63A5.492,5.492,0,0,1,171.6-1.9c1.23,0,1.662.639,1.662,1.694V-.08a7.512,7.512,0,0,0-1.518-.176c-1.742,0-3.66.655-3.66,2.717A2.761,2.761,0,0,0,171.1,5.13a2.817,2.817,0,0,0,2.285-.911l.176.719ZM173.26,2.829a2.472,2.472,0,0,1-1.678.719A1.153,1.153,0,0,1,170.3,2.429c0-.991.975-1.294,1.806-1.294a5.256,5.256,0,0,1,1.151.144Zm17.275,2.109V-7.047h-2.269v4.395a3.343,3.343,0,0,0-2.445-1.007A4.129,4.129,0,0,0,181.874.7a4.156,4.156,0,0,0,3.915,4.427,3.046,3.046,0,0,0,2.589-1.23l.192,1.039Zm-2.269-2.861a2.2,2.2,0,0,1-1.982,1.1A2.241,2.241,0,0,1,184.191.767a2.246,2.246,0,0,1,2.125-2.477,2.448,2.448,0,0,1,1.95.911Zm12.545,2.861V-3.468h-2.269V2.11A2.193,2.193,0,0,1,196.72,3.18a1.157,1.157,0,0,1-1.119-.591,4.346,4.346,0,0,1-.256-1.806V-3.468h-2.269V.9a4.935,4.935,0,0,0,.751,3.132,2.832,2.832,0,0,0,2.237,1.1,3.168,3.168,0,0,0,2.6-1.342l.176,1.151Zm4.57-8.406h-1.966V4.938h2.269V-.751a1.861,1.861,0,0,1,1.582-.927,1.686,1.686,0,0,1,.8.192l.543-1.982a3.144,3.144,0,0,0-1.087-.192,2.352,2.352,0,0,0-1.966,1.31Zm11.474,8.406V-.112c0-2.189-1.135-3.548-3.468-3.548a8.4,8.4,0,0,0-3.612.863l.607,1.63a5.492,5.492,0,0,1,2.541-.735c1.23,0,1.662.639,1.662,1.694V-.08a7.512,7.512,0,0,0-1.518-.176c-1.742,0-3.66.655-3.66,2.717a2.761,2.761,0,0,0,3.02,2.669,2.817,2.817,0,0,0,2.285-.911l.176.719Zm-2.269-2.109a2.472,2.472,0,0,1-1.678.719,1.153,1.153,0,0,1-1.278-1.119c0-.991.975-1.294,1.806-1.294a5.256,5.256,0,0,1,1.151.144Zm6.76-6.3H219.38V4.938h2.269V-.751a1.86,1.86,0,0,1,1.582-.927,1.686,1.686,0,0,1,.8.192l.543-1.982a3.144,3.144,0,0,0-1.087-.192,2.352,2.352,0,0,0-1.966,1.31Z" transform="translate(835.238 892.736)" fill="#201e78"/></g></svg>