<svg xmlns="http://www.w3.org/2000/svg" width="238.001" height="54.782" viewBox="0 0 238.001 54.782"><path d="M199.886,1319.63a27.167,27.167,0,0,1-14.524-14.524,27.739,27.739,0,0,1,0-21.386,26.333,26.333,0,0,1,5.837-8.67,27.2,27.2,0,0,1,30.056-5.908,28.068,28.068,0,0,1,14.594,14.594,27.2,27.2,0,0,1-5.908,30.056,26.269,26.269,0,0,1-8.669,5.837,27.654,27.654,0,0,1-21.387,0Zm-4.4-31.513A16.427,16.427,0,1,0,210.647,1278,16.438,16.438,0,0,0,195.482,1288.118Zm-55.244,33.4v-7.924l24.114-35.929H140.863l7.646-10.357h30.785v7.994l-24.461,35.859H180.27l-7.647,10.357Zm-18.114,0-23.975-33.847v33.847H87.236v-54.21h9.659l24.258,34.194v-34.194h10.913v54.21Zm-79.046,0v-10.386h35.1v10.386Zm-43.078,0v-54.21H35.656v10.357H10.913v12.508H35.656v10.357H10.913v20.987ZM43.078,1299.6v-10.387h35.1V1299.6Zm0-21.911v-10.387h35.1v10.387Z" transform="translate(0 -1267)" fill="#03f"/></svg>