<svg xmlns="http://www.w3.org/2000/svg" width="627.776" height="425.567" viewBox="0 0 627.776 425.567">
  <g transform="translate(1.5 1.5)">
    <path d="M0 0v32.683h4.358v378.155h532.67V32.683h4.311V0zm133.932 377.83H18.59v-24.339h115.342zm0-225.539H18.59V32.683h115.342zM263.554 377.83H148.211v-24.339h115.343zm0-225.539H148.211V32.683h115.343zM393.175 377.83H277.786v-24.339h115.389zm0-225.539H277.786V32.683h115.389zM522.981 377.83H407.407v-24.339H522.8zm0-225.539H407.407V32.683H522.8z" fill="none" stroke="#03f" stroke-miterlimit="10" stroke-width="3"/>
    <rect width="3.407" height="12.607" rx="1.704" transform="rotate(-35.02 277.663 -202.611)" fill="#03f"/>
    <rect width="3.407" height="12.607" rx="1.704" transform="rotate(-35.02 343.443 -396.155)" fill="#03f"/>
    <rect width="3.407" height="12.607" rx="1.704" transform="rotate(-35.02 209.708 12.894)" fill="#03f"/>
    <rect width="3.407" height="12.607" rx="1.704" transform="rotate(-35.02 440.557 -719.19)" fill="#03f"/>
    <rect width="3.407" height="12.607" rx="1.704" transform="rotate(-35.02 270.839 -211.09)" fill="#03f"/>
    <rect width="3.407" height="12.607" rx="1.704" transform="rotate(-35.02 336.618 -404.634)" fill="#03f"/>
    <rect width="3.407" height="12.607" rx="1.704" transform="rotate(-35.02 202.883 4.414)" fill="#03f"/>
    <rect width="3.407" height="12.607" rx="1.704" transform="rotate(-35.02 433.732 -727.67)" fill="#03f"/>
    <path d="M541.642 414.262a65.739 65.739 0 01-1.437-8.066 7.371 7.371 0 00-5.378-4.636c-1.576-.417-6.583-1.113-7.557 0s3.292 8.3 1.947 10.477c-.556 1.112-12.934 5.516-12.934 10.152 0 2.133 23.18 2.133 26.889 0 2.086-1.066.417-5.378-1.53-7.927zM618.274 412.315c-2.179-1.947-1.344-5.47-1.576-6.119a7.278 7.278 0 00-5.331-4.636c-1.576-.417-8.669-1.53-9.643 0s2.689 8.669 1.344 10.848c-.556.927-10.153 5.47-10.153 10.06 0 2.133 23.18 2.133 26.888 0 2.182-1.345 1.067-8.02-1.529-10.153z" fill="#1e1240"/>
    <path d="M534.827 163.643s-35.372-.742-47.7-6.815c-11.5-5.7-11.219-64.579-21.557-67.175s-14.974 61.8 2.735 82.891c12.8 15.206 61.195 19.7 61.195 19.7z" fill="#d3a67a"/>
    <path d="M505.666 161.371a292.338 292.338 0 0029.346 2.272l-5.331 28.6a233.643 233.643 0 01-30.5-5.239 46.36 46.36 0 016.49-25.637z" fill="#f2f2f2"/>
    <path d="M586.054 244.076a54.937 54.937 0 01-4.636-10.941c-2.086-25.59 21.557-47.889 15.345-59.34-10.57-19.564-50.578-15.53-60.87-10.616-17.617 8.3-9.55 20.676-8.345 37.088.881 12.053-3.709 29.716-5.331 37.5-4.45 14.282 78.255 33.151 63.837 6.309z" fill="#d5dae5"/>
    <path d="M566.583 143.523a8.3 8.3 0 011.3 1.9c.927 1.762-.417 10.524-3.8 11.08s-7.467-9.782-6.545-12.47 9.045-.51 9.045-.51z" fill="#201e78"/>
    <path d="M564.496 148.668l.649 13.4c-.417 1.669-6.166 4.636-8.206 1.947-.6-.788-2.086-2.874-.927-4.636l4.636-8.345z" fill="#d3a67a"/>
    <path d="M535.986 163.178a42.465 42.465 0 0110.431-2.874c-1.808 5.888-6.12 19.842-8.669 29.485a52.99 52.99 0 01-10.153 18.544 56.138 56.138 0 000-7.881c-1.159-16.597-9.226-28.975 8.391-37.274z" fill="#d5dae5"/>
    <path d="M556.152 159.15l1.993-3.709 4.636-.927a16.6 16.6 0 01-6.629 4.636z" fill="#201e78"/>
    <path d="M563.431 145.885l.464 7.047a4.219 4.219 0 01-4.219 4.219 11.636 11.636 0 01-5.146-1.066c-1.808-.742-2.272-2.735-1.669-5.146a23.921 23.921 0 013.431-7.232c2.183-3.152 6.351-2.363 7.139 2.178z" fill="#d3a67a"/>
    <path d="M551.887 145.982a5.469 5.469 0 01.6-2.55c.6-.834 4.311 0 5.609.51s4.265.881 4.961 1.715-.51 3.894-1.484 4.219a13.907 13.907 0 01-5.239-1.576s0-.974-.51-1.066-.6.649-1.344.742-3.196.183-2.593-1.994z" fill="#03f"/>
    <path d="M562.874 145.516l5.007 1.854-.185 2.133-5.192-1.623z" fill="#03f"/>
    <path d="M555.039 144.45a1.205 1.205 0 00-.974-.742 1.344 1.344 0 00-1.3.278c-.649.742-1.02 2.828 0 3.245 1.857.698 3.016-1.159 2.274-2.781zM560.788 146.026a1.484 1.484 0 00-.834-.927 1.391 1.391 0 00-1.344 0c-.742.6-1.53 2.6-.556 3.2a2.072 2.072 0 002.734-2.273z" fill="#1e1240"/>
    <path d="M565.053 145.052l3.755 3.8-1.02 1.854-4.451-5.424z" fill="#e8e8e8"/>
    <path d="M558.006 149.549a12.656 12.656 0 01-3.709-.834s-.417 1.391.278 2.086 2.504.278 3.431-1.252z" fill="#fff"/>
    <path d="M554.576 153.304c2.179 0 2.967 3.662 7.417 1.669a5.888 5.888 0 001.9-2.364 4.219 4.219 0 01-4.219 4.219 11.636 11.636 0 01-5.149-1.069 2.921 2.921 0 01-1.854-2.55 9.272 9.272 0 001.905.095z" fill="#896e55"/>
    <path d="M554.993 138.701a10.433 10.433 0 00.556-.974 6.629 6.629 0 016.629-2.967c.6 0 1.3-.742 1.947-.649 2.828.278 2.967 2.04 3.8 2.5 2.318 1.391 2.6 2.6 2.04 5.934s-1.391 3.57-1.391 3.57a36.393 36.393 0 01-10.014-1.854c-3.428-1.716-4.633-3.798-3.567-5.56z" fill="#ffb03b"/>
    <path d="M569.967 142.315c.556-3.338.278-4.636-2.04-5.934a.6.6 0 01-.325-.278 6.584 6.584 0 00-3.2 1.066 20.12 20.12 0 00-4.033 5.47 5.673 5.673 0 001.3 2.318 41.724 41.724 0 006.908.927s.834-.322 1.39-3.569z" fill="#ff9147"/>
    <path d="M554.9 139.953c0-.7-2.735 2.735 0 4.311a10.894 10.894 0 009.875 1.3s-8.858-2.273-9.875-5.611z" fill="#ffcc80"/>
    <path d="M563.245 148.669a4.635 4.635 0 00.464-1.252c0-.788.7-1.947 1.715-1.066s0 5.517-1.854 5.331-.928-2.225-.325-3.013z" fill="#d3a67a"/>
    <path d="M507.614 312.132a235.555 235.555 0 0114.7-74.175c1.622-7.788 6.212-25.451 5.331-37.5a76.474 76.474 0 00-.974-7.649c2.967-9.735 7.557-22.716 10.2-30.087a54.747 54.747 0 0111.265-2.735l-4.037 22.061 20.63 1.947 7.881-24.014a48.213 48.213 0 0112.888 3.709c-3.384 8.716-12.981 34.677-9.272 40.8a16.318 16.318 0 009.04 7 51.413 51.413 0 00-3.477 21.65 54.94 54.94 0 004.636 10.941c14.418 26.842 6.629 66.248 12.424 82.242 2.411 6.768 24.756 52.293 27.4 71.255.6 4.311-8.437 13.305-23.458 11.265-8.3-1.159-25.08-53.082-29.624-61.612-10.477-19.564-18.544-77.559-24.71-60.87-1.02 2.874-8.994 28.14-8.437 31.8 1.808 11.961 23.6 78.811 4.126 92.719-2.457 1.762-15.391 1.993-16.411-.834-7.094-18.175-20.723-82.476-20.121-97.913z" fill="#03f"/>
    <path d="M522.31 238.003c1.623-7.788 6.212-25.451 5.331-37.5a76.474 76.474 0 00-.974-7.649c2.967-9.735 7.557-22.716 10.2-30.087a39.823 39.823 0 016.676-1.9 22.346 22.346 0 01-2.318 13.212c-4.265 6.629-6.722 27.816-5.053 38.154a66.758 66.758 0 01-2.318 35.558c-4.96 14.325-8.53 42.465-9.272 60.267s-3.338 42.558 9.272 62.585c6.676 10.431 13.166 14.464 17.941 15.948 0 11.034-2.086 20.259-8.02 24.478-2.457 1.762-15.391 1.993-16.411-.834-6.722-18.173-20.166-82.473-19.749-97.911a235.554 235.554 0 0114.7-74.314z" fill="#0500cb"/>
    <path d="M582.021 228.777s-36.253 3.245-55.863-7.788c-2.6-1.483-1.808 6.815-.927 7.7 5.934 5.7 51.737 10.292 55.91 8.159 2.734-1.398.88-8.071.88-8.071z" fill="#201e78"/>
    <path d="M559.722 201.472l-22.3-2.55s-5.378 12.517 6.073 16.319c9.879 3.384 15.995-7.279 16.227-13.769z" fill="#d5dae5"/>
    <path d="M458.056 101.66a102.5 102.5 0 0014.65 1.205c2.272-.51-1.854-20.491-6.027-21.14s-8.345 17.246-8.623 19.935zM527.41 197.948c-.278-2.5-.7-4.914-1.113-7.232a266.283 266.283 0 0036.624 1.53 213.252 213.252 0 0027.816-4.636 42.558 42.558 0 01-23.18 11.265 97.354 97.354 0 01-40.147-.927z" fill="#201e78"/>
    <path d="M596.115 178.57c1.159 10.8-32.452 21.743-60.267 17.8-26.471-3.755-54.009-36.16-51.274-53.592s35.6 31.107 54.89 33.7a120.536 120.536 0 0032.776-2.642c10.569-1.988 22.576-7.598 23.875 4.734z" fill="#d3a67a"/>
    <path d="M484.526 145.191c1.808 2.364 4.636 5.656 7.927 9.828 7.418 8.9 30.319 28.975 40.889 33.1a54.194 54.194 0 0028.557 3.709c7.649-.417 17.107-1.437 23.736-2.225a94.342 94.342 0 01-49.651 6.768c-25.308-3.615-51.551-33.33-51.458-51.18z" fill="#896e55"/>
    <path d="M489.95 139.675a24.246 24.246 0 00-6.954-10.153c-1.252-2.364-4.219 0-2.225 3.106s-1.484 3.013-2.874 2.133-6.259-8.113-6.166-4.636a15.391 15.391 0 0011.5 14.65c3.103.88 7.415-2.411 6.719-5.1z" fill="#201e78"/>
    <path d="M488.468 137.959a110.518 110.518 0 0112.146 8.3c3.709 3.2-5.841 8.53-10.106 9.5s-4.08.417-4.636-1.113a84.74 84.74 0 01-3.013-12.332 10.57 10.57 0 015.609-4.355zM475.66 89.74a12.144 12.144 0 01.078 8.547c-1.889 3.532-5.247 4.618-6.344 2.869s2.83-7.739 2.579-9.451 1.839-6.197 3.688-1.965z" fill="#201e78"/>
    <path d="M556.755 176.16c6.119-.7 11.775-1.762 15.3-2.364 10.754-1.948 22.76-7.557 24.06 4.634.834 7.835-15.855 18.127-36.114 20.352-5.886-6.211-4.637-18.264-3.246-22.622z" fill="#f2f2f2"/>
    <path d="M559.999 198.922a16.55 16.55 0 01-3.8-8.02c1.947-.278 4.636-.742 8.159-1.437 8.762-1.762 25.637-10.987 31.061-13.908a13.91 13.91 0 01.7 3.152c.829 7.696-15.86 17.988-36.12 20.213z" fill="#d5dae5"/>
    <path d="M551.053 283.574a33.472 33.472 0 0118.544 20.213c4.033 12.934 35.372 83.447 44.6 104.309a28.372 28.372 0 01-11.775.742c-8.3-1.159-25.081-53.082-29.624-61.612-8.811-16.504-16.089-60.36-21.745-63.652z" fill="#0500cb"/>
  </g>
</svg>